<svg id="Camada_1" data-name="Camada 1" xmlns="http://www.w3.org/2000/svg" viewBox="0 0 559 424"><defs><style>.cls-1,.cls-2{fill:#fff;}.cls-2{font-size:136.61px;font-family:Agenda-Bold, Agenda;font-weight:700;}</style></defs><title>pomofit-logo</title><path class="cls-1" d="M215.81,219.08c14.81-34.76,29.34-68.84,44-103.31l15.65,6.83-16.59,39.28c9.68,2.43,23.79-.36,31.39-9.86a25.25,25.25,0,0,0,2-28.47c-7.76-13.54-30.75-20.58-45.51-3.16a36.05,36.05,0,0,0-8.6,25.84c.09,2-.42,2.72-2.3,3-3.81.51-7.61,1.06-11.37,1.82-2.82.58-3.11-1-3.23-3.1-.79-14.2,3.1-27,12.19-37.93,19.79-23.83,55.22-22.1,72.72,3.42,12.25,17.88,7.45,43.66-10.74,56.9-11.74,8.54-25,10.91-39.12,8.6-3.58-.59-5.13.39-6.46,3.66-4.56,11.2-9.49,22.24-14.13,33.41-.93,2.25-2.05,3.26-4.59,3.15C226.32,218.94,221.44,219.08,215.81,219.08Z"/><path class="cls-1" d="M273.49,83.59c2.2-5.18,4.05-9.81,6.19-14.3a3.6,3.6,0,0,1,3-1.43c27.88,2.77,48.49,18,56.24,46,4.64,16.78,4.78,33.66-2.23,49.93-10.2,23.67-28.27,38-53.54,42.57-9.19,1.66-18.75,1.27-28.14,1.78a38.47,38.47,0,0,1-4.12-.31c2.24-5.65,4.14-11,6.57-16.05.4-.85,3.09-.94,4.69-.84,11.47.73,22.57-.78,32.88-6,37.92-19.1,38-67.17,10.95-89.3-8.23-6.73-18-9.89-28.46-11.38C276.38,84.09,275.27,83.88,273.49,83.59Z"/><text class="cls-2" transform="translate(35.7 355.21)">pomoFit</text></svg>