<svg id="Camada_1" data-name="Camada 1" xmlns="http://www.w3.org/2000/svg" viewBox="0 0 559 424">
  <defs>
    <style>
      .cls-1 {
        fill: #fff;
      }
    </style>
  </defs>
  <title>pomoFit</title>
  <g>
    <path class="cls-1" d="M215.81,219.08c14.81-34.76,29.34-68.84,44-103.31l15.65,6.83-16.59,39.28c9.68,2.43,23.79-.36,31.39-9.86a25.25,25.25,0,0,0,2-28.47c-7.76-13.54-30.75-20.58-45.51-3.16a36.05,36.05,0,0,0-8.6,25.84c.09,2-.42,2.72-2.3,3-3.81.51-7.61,1.06-11.37,1.82-2.82.58-3.11-1-3.23-3.1-.79-14.2,3.1-27,12.19-37.93,19.79-23.83,55.22-22.1,72.72,3.42,12.25,17.88,7.45,43.66-10.74,56.9-11.74,8.54-25,10.91-39.12,8.6-3.58-.59-5.13.39-6.46,3.66-4.56,11.2-9.49,22.24-14.13,33.41-.93,2.25-2.05,3.26-4.59,3.15C226.32,218.94,221.44,219.08,215.81,219.08Z"/>
    <path class="cls-1" d="M273.49,83.59c2.2-5.18,4.05-9.81,6.19-14.3a3.6,3.6,0,0,1,3-1.43c27.88,2.77,48.49,18,56.24,46,4.64,16.78,4.78,33.66-2.23,49.93-10.2,23.67-28.27,38-53.54,42.57-9.19,1.66-18.75,1.27-28.14,1.78a38.47,38.47,0,0,1-4.12-.31c2.24-5.65,4.14-11,6.57-16.05.4-.85,3.09-.94,4.69-.84,11.47.73,22.57-.78,32.88-6,37.92-19.1,38-67.17,10.95-89.3-8.23-6.73-18-9.89-28.46-11.38C276.38,84.09,275.27,83.88,273.49,83.59Z"/>
  </g>
  <g>
    <path class="cls-1" d="M106.87,323.52a35.91,35.91,0,0,1-2.53,13.8,31.5,31.5,0,0,1-7,10.58,31.18,31.18,0,0,1-10.59,6.83,35.57,35.57,0,0,1-13.18,2.39,27.2,27.2,0,0,1-6.83-.75,19.73,19.73,0,0,1-4.79-1.84v32.24H42.53V293.33H58.24l.54,4.5a13.53,13.53,0,0,1,6.83-4.64,32,32,0,0,1,10.11-1.5A31.68,31.68,0,0,1,96.83,300a32.14,32.14,0,0,1,7.24,10A31.16,31.16,0,0,1,106.87,323.52Zm-19.26,1a17.15,17.15,0,0,0-1.09-6.21,14.34,14.34,0,0,0-7.72-8.06A14,14,0,0,0,73.13,309a16.3,16.3,0,0,0-6.35,1.16,16.09,16.09,0,0,0-4.86,3.07v22.82a16.17,16.17,0,0,0,4.79,2.73,17.87,17.87,0,0,0,6.42,1.09,14.13,14.13,0,0,0,5.67-1.16,14.3,14.3,0,0,0,4.64-3.21,14.5,14.5,0,0,0,3.08-4.85A17.17,17.17,0,0,0,87.61,324.47Z"/>
    <path class="cls-1" d="M182.42,324.34A32.43,32.43,0,0,1,172.58,348a31.39,31.39,0,0,1-10.65,6.76,37.18,37.18,0,0,1-26.23,0,32,32,0,0,1-20.63-30.39A32.9,32.9,0,0,1,117.73,311a31.8,31.8,0,0,1,18-17.22,37.18,37.18,0,0,1,26.23,0,31.56,31.56,0,0,1,10.65,6.77A32.41,32.41,0,0,1,179.75,311,32.74,32.74,0,0,1,182.42,324.34Zm-19.26,0A17,17,0,0,0,162,318a16.72,16.72,0,0,0-3.14-5.12,13.92,13.92,0,0,0-4.57-3.35,13.37,13.37,0,0,0-5.47-1.16,13.75,13.75,0,0,0-5.53,1.16,13,13,0,0,0-4.58,3.35,17.36,17.36,0,0,0-3.07,5.12,17,17,0,0,0-1.16,6.36,16.69,16.69,0,0,0,4.23,11.27,13.32,13.32,0,0,0,4.58,3.28,13.75,13.75,0,0,0,5.53,1.16,13.37,13.37,0,0,0,5.47-1.16,14.3,14.3,0,0,0,4.57-3.28,16,16,0,0,0,3.14-5A16.48,16.48,0,0,0,163.16,324.34Z"/>
    <path class="cls-1" d="M269.85,355.21V317.1a6.49,6.49,0,0,0-2.39-5.26,9.86,9.86,0,0,0-6.49-2,11,11,0,0,0-6.9,2.05,6.51,6.51,0,0,0-2.66,5.46v37.84H231.33V317.1a6.47,6.47,0,0,0-2.4-5.26q-2.38-2-6.76-2a10.75,10.75,0,0,0-6.76,2.05,6.51,6.51,0,0,0-2.66,5.46v37.84H192.66V293.33h17.63l.54,6.14a19.21,19.21,0,0,1,6.9-5.46,24.37,24.37,0,0,1,11.14-2.32A22.44,22.44,0,0,1,239.52,294a21.61,21.61,0,0,1,7,5.6,21.23,21.23,0,0,1,8.26-5.6,31.64,31.64,0,0,1,12.37-2.32q10.92,0,16.87,5.94T289.93,313v42.21Z"/>
    <path class="cls-1" d="M367.53,324.34A32.43,32.43,0,0,1,357.69,348,31.39,31.39,0,0,1,347,354.73a37.18,37.18,0,0,1-26.23,0,32,32,0,0,1-20.63-30.39A32.74,32.74,0,0,1,302.84,311a31.8,31.8,0,0,1,18-17.22,37.18,37.18,0,0,1,26.23,0,31.56,31.56,0,0,1,10.65,6.77A32.41,32.41,0,0,1,364.86,311,32.74,32.74,0,0,1,367.53,324.34Zm-19.27,0A17,17,0,0,0,347.1,318a16.72,16.72,0,0,0-3.14-5.12,13.86,13.86,0,0,0-4.58-3.35,13.28,13.28,0,0,0-5.46-1.16,13.75,13.75,0,0,0-5.53,1.16,12.91,12.91,0,0,0-4.58,3.35,17.36,17.36,0,0,0-3.07,5.12,17,17,0,0,0-1.16,6.36,16.69,16.69,0,0,0,4.23,11.27,13.22,13.22,0,0,0,4.58,3.28,13.75,13.75,0,0,0,5.53,1.16,13.28,13.28,0,0,0,5.46-1.16,14.23,14.23,0,0,0,4.58-3.28,16,16,0,0,0,3.14-5A16.48,16.48,0,0,0,348.26,324.34Z"/>
    <path class="cls-1" d="M400.31,285.4v17.35h25.41v17.63H400.31v34.83H379.14V268.05h52.05V285.4Z"/>
    <path class="cls-1" d="M461.52,273a5.85,5.85,0,0,1-1.17,3,20.84,20.84,0,0,1-2.8,3.41,18.48,18.48,0,0,1-3.41,2.73,6.12,6.12,0,0,1-3,1.1,6.06,6.06,0,0,1-3-1.1,16.65,16.65,0,0,1-3.35-2.73,23.19,23.19,0,0,1-2.73-3.41,4.49,4.49,0,0,1,0-6,23.19,23.19,0,0,1,2.73-3.41,19,19,0,0,1,3.35-2.8,5.86,5.86,0,0,1,3-1.16,5.92,5.92,0,0,1,3,1.16,21.36,21.36,0,0,1,3.41,2.8,20.84,20.84,0,0,1,2.8,3.41A5.85,5.85,0,0,1,461.52,273Zm-20.36,82.24V293.33h20.22v61.88Z"/>
    <path class="cls-1" d="M518.48,309.72H500.86v22.4a6.75,6.75,0,0,0,2.12,5.4,8.1,8.1,0,0,0,5.53,1.84,18,18,0,0,0,6.42-.95l-1.5,16.39q-3.28,1.5-9.43,1.5a26.33,26.33,0,0,1-9.36-1.57,21.45,21.45,0,0,1-7.24-4.44,19.36,19.36,0,0,1-4.71-6.76,21.81,21.81,0,0,1-1.64-8.54V309.72H470.53V293.33h10.93v-12l19.12-7.24v19.27H520Z"/>
  </g>
</svg>
