<svg id="Camada_1" data-name="Camada 1" xmlns="http://www.w3.org/2000/svg" viewBox="0 0 769 603">
  <defs>
    <style>
      .cls-1 {
        fill: #b91d00;
      }

      .cls-2 {
        fill: #fff;
      }
    </style>
  </defs>
  <title>pomoFit</title>
  <rect class="cls-1" x="211.18" y="0.1" width="339.64" height="339.64"/>
  <g>
    <path class="cls-2" d="M279.21,291.66l70.92-166.4,25.21,11-26.73,63.26c15.59,3.93,38.32-.58,50.56-15.88a40.65,40.65,0,0,0,3.29-45.85C390,116,352.93,104.64,329.15,132.7c-10.1,11.91-14.61,26-13.85,41.62.15,3.19-.68,4.38-3.71,4.79-6.13.82-12.26,1.7-18.31,2.93-4.55.93-5-1.65-5.2-5-1.27-22.89,5-43.46,19.64-61.1,31.87-38.39,88.94-35.61,117.12,5.51,19.73,28.79,12,70.33-17.29,91.65-18.91,13.76-40.28,17.58-63,13.85-5.77-1-8.27.63-10.42,5.89-7.34,18-15.28,35.83-22.75,53.82-1.51,3.63-3.31,5.25-7.4,5.08C296.14,291.43,288.28,291.66,279.21,291.66Z"/>
    <path class="cls-2" d="M372.12,73.43c3.55-8.35,6.53-15.81,10-23,.61-1.28,3.25-2.46,4.81-2.31C431.81,52.55,465,77,477.49,122.14c7.47,27,7.69,54.21-3.6,80.41-16.43,38.13-45.54,61.26-86.24,68.58-14.8,2.67-30.19,2.05-45.32,2.86a57.52,57.52,0,0,1-6.64-.5c3.6-9.09,6.67-17.67,10.57-25.85.66-1.37,5-1.51,7.56-1.34,18.48,1.16,36.36-1.27,53-9.64,61.08-30.77,61.24-108.2,17.64-143.84C411.17,82,395.36,76.88,378.59,74.48,376.78,74.22,375,73.9,372.12,73.43Z"/>
  </g>
  <g>
    <path class="cls-1" d="M103.74,501.5a58.08,58.08,0,0,1-4.07,22.23,50.79,50.79,0,0,1-11.33,17,50,50,0,0,1-17.06,11,57.47,57.47,0,0,1-21.23,3.85,43.78,43.78,0,0,1-11-1.21,31.43,31.43,0,0,1-7.7-3v51.93H.1V452.87H25.4l.88,7.26a21.76,21.76,0,0,1,11-7.48,51.48,51.48,0,0,1,16.29-2.42,50.23,50.23,0,0,1,17.82,3.41,49.5,49.5,0,0,1,16.18,10,51.78,51.78,0,0,1,11.66,16.18A50.32,50.32,0,0,1,103.74,501.5Zm-31,1.54A27.22,27.22,0,0,0,71,493a23,23,0,0,0-12.43-13,22.57,22.57,0,0,0-9.13-1.88,26.48,26.48,0,0,0-10.24,1.88A25.63,25.63,0,0,0,31.34,485v36.75a26.09,26.09,0,0,0,7.7,4.4,29,29,0,0,0,10.35,1.76A22.73,22.73,0,0,0,58.52,526a23,23,0,0,0,12.43-13A27.15,27.15,0,0,0,72.71,503Z"/>
    <path class="cls-1" d="M225.43,502.82a52.13,52.13,0,0,1-4.29,21.35,52.7,52.7,0,0,1-11.56,16.72,50.58,50.58,0,0,1-17.16,10.89,59.88,59.88,0,0,1-42.25,0,51.6,51.6,0,0,1-33.23-49,52.88,52.88,0,0,1,4.29-21.45,51.2,51.2,0,0,1,28.94-27.73,59.88,59.88,0,0,1,42.25,0,50.88,50.88,0,0,1,17.16,10.89,52.69,52.69,0,0,1,15.85,38.29Zm-31,0a27.52,27.52,0,0,0-1.87-10.23,27.13,27.13,0,0,0-5.06-8.25A22,22,0,0,0,180.1,479a21.29,21.29,0,0,0-8.81-1.88,22,22,0,0,0-8.91,1.88,20.48,20.48,0,0,0-7.37,5.39,28.09,28.09,0,0,0-4.95,8.25,27.52,27.52,0,0,0-1.87,10.23,26.65,26.65,0,0,0,1.87,10.12,27,27,0,0,0,4.95,8,21.3,21.3,0,0,0,7.37,5.28,22.18,22.18,0,0,0,8.91,1.87,21.44,21.44,0,0,0,8.81-1.87,22.91,22.91,0,0,0,7.37-5.28,26.09,26.09,0,0,0,5.06-8A26.65,26.65,0,0,0,194.4,502.82Z"/>
    <path class="cls-1" d="M366.26,552.55V491.16a10.46,10.46,0,0,0-3.85-8.47q-3.86-3.19-10.45-3.19-6.82,0-11.12,3.3a10.54,10.54,0,0,0-4.29,8.8v60.95H304.21V491.16a10.44,10.44,0,0,0-3.86-8.47q-3.84-3.19-10.89-3.19a17.34,17.34,0,0,0-10.89,3.3,10.54,10.54,0,0,0-4.29,8.8v60.95H241.93V452.87h28.39l.88,9.9a30.82,30.82,0,0,1,11.11-8.8q7.37-3.74,17.93-3.74,10.13,0,17.17,3.74a35.1,35.1,0,0,1,11.22,9q4.39-5.28,13.31-9a51.1,51.1,0,0,1,19.92-3.74q17.59,0,27.18,9.57t9.57,24.76v68Z"/>
    <path class="cls-1" d="M523.6,502.82a52,52,0,0,1-4.3,21.35,52.84,52.84,0,0,1-11.55,16.72,50.58,50.58,0,0,1-17.16,10.89,59.88,59.88,0,0,1-42.25,0,51.6,51.6,0,0,1-33.23-49,52.88,52.88,0,0,1,4.29-21.45,51.12,51.12,0,0,1,28.94-27.73,59.88,59.88,0,0,1,42.25,0,50.88,50.88,0,0,1,17.16,10.89,52.79,52.79,0,0,1,15.85,38.29Zm-31,0a27.72,27.72,0,0,0-1.87-10.23,27.13,27.13,0,0,0-5.06-8.25,21.89,21.89,0,0,0-7.38-5.39,21.24,21.24,0,0,0-8.8-1.88,22,22,0,0,0-8.91,1.88,20.48,20.48,0,0,0-7.37,5.39,27.88,27.88,0,0,0-4.95,8.25,27.52,27.52,0,0,0-1.87,10.23A26.88,26.88,0,0,0,453.18,521a21.3,21.3,0,0,0,7.37,5.28,22.18,22.18,0,0,0,8.91,1.87,21.39,21.39,0,0,0,8.8-1.87,22.84,22.84,0,0,0,7.38-5.28,26.09,26.09,0,0,0,5.06-8A26.84,26.84,0,0,0,492.57,502.82Z"/>
    <path class="cls-1" d="M576.41,440.11v27.94h40.93v28.39H576.41v56.11H542.3V412.16h83.84v27.95Z"/>
    <path class="cls-1" d="M675,420.08a9.46,9.46,0,0,1-1.87,4.84,34.53,34.53,0,0,1-4.51,5.5,30,30,0,0,1-5.51,4.4,7.53,7.53,0,0,1-9.68,0,27.17,27.17,0,0,1-5.39-4.4,37.89,37.89,0,0,1-4.4-5.5,7.2,7.2,0,0,1,0-9.68,37.89,37.89,0,0,1,4.4-5.5,31,31,0,0,1,5.39-4.51,7.2,7.2,0,0,1,9.68,0,36,36,0,0,1,10,10A9.49,9.49,0,0,1,675,420.08ZM642.2,552.55V452.87h32.57v99.68Z"/>
    <path class="cls-1" d="M766.75,479.28H738.36v36.08q0,5.73,3.41,8.7a13.07,13.07,0,0,0,8.91,3A29.16,29.16,0,0,0,761,525.49l-2.42,26.4q-5.28,2.43-15.18,2.42a42.34,42.34,0,0,1-15.07-2.53,34.82,34.82,0,0,1-11.67-7.15,31.39,31.39,0,0,1-7.59-10.89A35.12,35.12,0,0,1,706.45,520v-40.7H689.51V452.87h17.6V433.5l30.81-11.66v31h31.25Z"/>
  </g>
</svg>
