<svg id="Camada_1" data-name="Camada 1" xmlns="http://www.w3.org/2000/svg" viewBox="0 0 769 603">
  <defs>
    <style>
      .cls-1, .cls-3 {
        fill: #b91d00;
      }

      .cls-2 {
        fill: #fff;
      }

      .cls-3 {
        font-size: 220.05px;
        font-family: Agenda-Bold, Agenda;
        font-weight: 700;
      }
    </style>
  </defs>
  <title>2</title>
  <rect class="cls-1" x="211.18" y="0.1" width="339.64" height="339.64"/>
  <g>
    <path class="cls-2" d="M279.21,291.66l70.92-166.4,25.21,11-26.73,63.26c15.59,3.93,38.32-.58,50.56-15.88a40.65,40.65,0,0,0,3.29-45.85C390,116,352.93,104.64,329.15,132.7c-10.1,11.91-14.61,26-13.85,41.62.15,3.19-.68,4.38-3.71,4.79-6.13.82-12.26,1.7-18.31,2.93-4.55.93-5-1.65-5.2-5-1.27-22.89,5-43.46,19.64-61.1,31.87-38.39,88.94-35.61,117.12,5.51,19.73,28.79,12,70.33-17.29,91.65-18.91,13.76-40.28,17.58-63,13.85-5.77-1-8.27.63-10.42,5.89-7.34,18-15.28,35.83-22.75,53.82-1.51,3.63-3.31,5.25-7.4,5.08C296.14,291.43,288.28,291.66,279.21,291.66Z"/>
    <path class="cls-2" d="M372.12,73.43c3.55-8.35,6.53-15.81,10-23,.61-1.28,3.25-2.46,4.81-2.31C431.81,52.55,465,77,477.49,122.14c7.47,27,7.69,54.21-3.6,80.41-16.43,38.13-45.54,61.26-86.24,68.58-14.8,2.67-30.19,2.05-45.32,2.86a57.52,57.52,0,0,1-6.64-.5c3.6-9.09,6.67-17.67,10.57-25.85.66-1.37,5-1.51,7.56-1.34,18.48,1.16,36.36-1.27,53-9.64,61.08-30.77,61.24-108.2,17.64-143.84C411.17,82,395.36,76.88,378.59,74.48,376.78,74.22,375,73.9,372.12,73.43Z"/>
  </g>
  <text class="cls-3" transform="translate(-10.91 552.55)">pomoFit</text>
</svg>
