<svg id="Camada_1" data-name="Camada 1" xmlns="http://www.w3.org/2000/svg" viewBox="0 0 340 340">
  <defs>
    <style>
      .cls-1 {
        fill: #b91d00;
      }
    </style>
  </defs>
  <title>pomoFit</title>
  <g>
    <path class="cls-1" d="M36,330.19l93.36-219.07,33.18,14.48c-11.86,28.09-23.49,55.61-35.18,83.29,20.53,5.17,50.44-.76,66.55-20.91a53.5,53.5,0,0,0,4.34-60.36C181.78,98.9,133,84,101.73,120.92c-13.29,15.68-19.22,34.26-18.23,54.8.2,4.2-.88,5.76-4.88,6.3-8.07,1.08-16.14,2.24-24.11,3.86-6,1.22-6.59-2.17-6.84-6.57C46,149.18,54.24,122.09,73.52,98.87c42-50.54,117.09-46.88,154.19,7.26,26,37.9,15.8,92.58-22.76,120.65-24.9,18.11-53,23.14-83,18.23-7.58-1.25-10.88.83-13.7,7.76-9.66,23.75-20.13,47.17-30,70.85-2,4.78-4.36,6.91-9.73,6.7C58.28,329.89,47.94,330.19,36,330.19Z"/>
    <path class="cls-1" d="M158.32,42.89c4.66-11,8.58-20.81,13.11-30.33.81-1.69,4.28-3.24,6.34-3C236.89,15.41,280.6,47.62,297,107c9.84,35.58,10.13,71.37-4.74,105.86-21.63,50.19-60,80.64-113.54,90.29-19.48,3.51-39.74,2.69-59.66,3.76-2.4.13-4.83-.35-8.74-.66,4.74-12,8.78-23.27,13.92-34,.86-1.79,6.56-2,10-1.76,24.32,1.53,47.86-1.66,69.74-12.68,80.4-40.51,80.62-142.45,23.21-189.38-17.45-14.26-38.27-21-60.35-24.13C164.45,43.94,162.09,43.51,158.32,42.89Z"/>
  </g>
</svg>
